<svg width="7" height="15" viewBox="0 0 7 15" fill="none" xmlns="http://www.w3.org/2000/svg">
<path d="M0 3.6004C0 2.7464 0.316915 2.01616 0.950746 1.4097C1.58458 0.803232 2.34776 0.5 3.2403 0.5C4.13284 0.5 4.89602 0.803232 5.52985 1.4097C6.16368 2.01616 6.48706 2.7464 6.5 3.6004C6.5 3.69941 6.48707 3.78605 6.46119 3.86031L5.39403 7.88897C5.35522 8.43355 5.12886 8.8915 4.71493 9.2628C4.30099 9.63411 3.80945 9.81976 3.2403 9.81976C2.68408 9.81976 2.19901 9.6403 1.78507 9.28137C1.37114 8.92244 1.13831 8.47687 1.08657 7.94467C0.957214 7.57336 0.821393 7.16493 0.679104 6.71936C0.536816 6.2738 0.38806 5.7354 0.232836 5.10418C0.0776118 4.47297 0 3.9717 0 3.6004ZM1.06716 12.9202C1.06716 12.3508 1.2806 11.8681 1.70746 11.4721C2.13433 11.076 2.64527 10.8718 3.2403 10.8594C3.83532 10.847 4.34627 11.0513 4.77313 11.4721C5.2 11.8929 5.41343 12.3756 5.41343 12.9202C5.41343 13.5019 5.2 13.9908 4.77313 14.3868C4.34627 14.7829 3.83532 14.9871 3.2403 14.9995C2.64527 15.0118 2.13433 14.8076 1.70746 14.3868C1.2806 13.966 1.06716 13.4771 1.06716 12.9202Z" fill="#F3F5F5"/>
</svg>
